<svg xmlns="http://www.w3.org/2000/svg" xmlns:xlink="http://www.w3.org/1999/xlink" width="24px" height="24px" viewBox="0 0 24 24" version="1.1">
<defs>
<clipPath id="clip1">
  <path d="M 5 10 L 8 10 L 8 13 L 5 13 Z M 5 10 "/>
</clipPath>
<clipPath id="clip2">
  <path d="M 0.0664062 12 L 12 0.0664062 L 23.933594 12 L 12 23.933594 Z M 0.0664062 12 "/>
</clipPath>
<clipPath id="clip3">
  <path d="M 10 16 L 13 16 L 13 19 L 10 19 Z M 10 16 "/>
</clipPath>
<clipPath id="clip4">
  <path d="M 0.0664062 12 L 12 0.0664062 L 23.933594 12 L 12 23.933594 Z M 0.0664062 12 "/>
</clipPath>
<clipPath id="clip5">
  <path d="M 10 4 L 13 4 L 13 8 L 10 8 Z M 10 4 "/>
</clipPath>
<clipPath id="clip6">
  <path d="M 0.0664062 12 L 12 0.0664062 L 23.933594 12 L 12 23.933594 Z M 0.0664062 12 "/>
</clipPath>
<clipPath id="clip7">
  <path d="M 16 10 L 19 10 L 19 13 L 16 13 Z M 16 10 "/>
</clipPath>
<clipPath id="clip8">
  <path d="M 0.0664062 12 L 12 0.0664062 L 23.933594 12 L 12 23.933594 Z M 0.0664062 12 "/>
</clipPath>
<clipPath id="clip9">
  <path d="M 8 10 L 19 10 L 19 21 L 8 21 Z M 8 10 "/>
</clipPath>
<clipPath id="clip10">
  <path d="M 0.0664062 12 L 12 0.0664062 L 23.933594 12 L 12 23.933594 Z M 0.0664062 12 "/>
</clipPath>
<clipPath id="clip11">
  <path d="M 3 8 L 13 8 L 13 19 L 3 19 Z M 3 8 "/>
</clipPath>
<clipPath id="clip12">
  <path d="M 0.0664062 12 L 12 0.0664062 L 23.933594 12 L 12 23.933594 Z M 0.0664062 12 "/>
</clipPath>
<clipPath id="clip13">
  <path d="M 5 2 L 15 2 L 15 13 L 5 13 Z M 5 2 "/>
</clipPath>
<clipPath id="clip14">
  <path d="M 0.0664062 12 L 12 0.0664062 L 23.933594 12 L 12 23.933594 Z M 0.0664062 12 "/>
</clipPath>
<clipPath id="clip15">
  <path d="M 10 5 L 21 5 L 21 15 L 10 15 Z M 10 5 "/>
</clipPath>
<clipPath id="clip16">
  <path d="M 0.0664062 12 L 12 0.0664062 L 23.933594 12 L 12 23.933594 Z M 0.0664062 12 "/>
</clipPath>
<clipPath id="clip17">
  <path d="M 5 10 L 8 10 L 8 13 L 5 13 Z M 5 10 "/>
</clipPath>
<clipPath id="clip18">
  <path d="M 0.0664062 12 L 12 0.0664062 L 23.933594 12 L 12 23.933594 Z M 0.0664062 12 "/>
</clipPath>
<clipPath id="clip19">
  <path d="M 10 16 L 13 16 L 13 19 L 10 19 Z M 10 16 "/>
</clipPath>
<clipPath id="clip20">
  <path d="M 0.0664062 12 L 12 0.0664062 L 23.933594 12 L 12 23.933594 Z M 0.0664062 12 "/>
</clipPath>
<clipPath id="clip21">
  <path d="M 10 4 L 13 4 L 13 8 L 10 8 Z M 10 4 "/>
</clipPath>
<clipPath id="clip22">
  <path d="M 0.0664062 12 L 12 0.0664062 L 23.933594 12 L 12 23.933594 Z M 0.0664062 12 "/>
</clipPath>
<clipPath id="clip23">
  <path d="M 16 10 L 19 10 L 19 13 L 16 13 Z M 16 10 "/>
</clipPath>
<clipPath id="clip24">
  <path d="M 0.0664062 12 L 12 0.0664062 L 23.933594 12 L 12 23.933594 Z M 0.0664062 12 "/>
</clipPath>
<clipPath id="clip25">
  <path d="M 8 10 L 19 10 L 19 21 L 8 21 Z M 8 10 "/>
</clipPath>
<clipPath id="clip26">
  <path d="M 0.0664062 12 L 12 0.0664062 L 23.933594 12 L 12 23.933594 Z M 0.0664062 12 "/>
</clipPath>
<clipPath id="clip27">
  <path d="M 3 8 L 13 8 L 13 19 L 3 19 Z M 3 8 "/>
</clipPath>
<clipPath id="clip28">
  <path d="M 0.0664062 12 L 12 0.0664062 L 23.933594 12 L 12 23.933594 Z M 0.0664062 12 "/>
</clipPath>
<clipPath id="clip29">
  <path d="M 5 2 L 15 2 L 15 13 L 5 13 Z M 5 2 "/>
</clipPath>
<clipPath id="clip30">
  <path d="M 0.0664062 12 L 12 0.0664062 L 23.933594 12 L 12 23.933594 Z M 0.0664062 12 "/>
</clipPath>
<clipPath id="clip31">
  <path d="M 10 5 L 21 5 L 21 15 L 10 15 Z M 10 5 "/>
</clipPath>
<clipPath id="clip32">
  <path d="M 0.0664062 12 L 12 0.0664062 L 23.933594 12 L 12 23.933594 Z M 0.0664062 12 "/>
</clipPath>
</defs>
<g id="surface1">
<g clip-path="url(#clip1)" clip-rule="nonzero">
<g clip-path="url(#clip2)" clip-rule="nonzero">
<path style=" stroke:none;fill-rule:nonzero;fill:rgb(19.607843%,24.705882%,21.568628%);fill-opacity:1;" d="M 6.824219 12.417969 C 7.238281 12.007812 7.238281 11.339844 6.824219 10.925781 C 6.414062 10.515625 5.746094 10.515625 5.332031 10.925781 C 4.921875 11.339844 4.921875 12.007812 5.332031 12.417969 C 5.746094 12.832031 6.414062 12.832031 6.824219 12.417969 Z M 6.824219 12.417969 "/>
</g>
</g>
<g clip-path="url(#clip3)" clip-rule="nonzero">
<g clip-path="url(#clip4)" clip-rule="nonzero">
<path style=" stroke:none;fill-rule:nonzero;fill:rgb(19.607843%,24.705882%,21.568628%);fill-opacity:1;" d="M 12.511719 18.109375 C 12.925781 17.695312 12.925781 17.027344 12.511719 16.617188 C 12.101562 16.203125 11.433594 16.203125 11.019531 16.617188 C 10.609375 17.027344 10.609375 17.695312 11.019531 18.109375 C 11.433594 18.519531 12.101562 18.519531 12.511719 18.109375 Z M 12.511719 18.109375 "/>
</g>
</g>
<g clip-path="url(#clip5)" clip-rule="nonzero">
<g clip-path="url(#clip6)" clip-rule="nonzero">
<path style=" stroke:none;fill-rule:nonzero;fill:rgb(78.431374%,27.843139%,32.941177%);fill-opacity:1;" d="M 12.390625 6.789062 C 12.804688 6.375 12.804688 5.707031 12.390625 5.296875 C 11.980469 4.882812 11.3125 4.882812 10.898438 5.296875 C 10.488281 5.707031 10.488281 6.375 10.898438 6.789062 C 11.3125 7.199219 11.980469 7.199219 12.390625 6.789062 Z M 12.390625 6.789062 "/>
</g>
</g>
<g clip-path="url(#clip7)" clip-rule="nonzero">
<g clip-path="url(#clip8)" clip-rule="nonzero">
<path style=" stroke:none;fill-rule:nonzero;fill:rgb(78.431374%,27.843139%,32.941177%);fill-opacity:1;" d="M 18.109375 12.511719 C 18.519531 12.101562 18.519531 11.433594 18.109375 11.019531 C 17.695312 10.609375 17.027344 10.609375 16.617188 11.019531 C 16.203125 11.433594 16.203125 12.101562 16.617188 12.511719 C 17.027344 12.925781 17.695312 12.925781 18.109375 12.511719 Z M 18.109375 12.511719 "/>
</g>
</g>
<g clip-path="url(#clip9)" clip-rule="nonzero">
<g clip-path="url(#clip10)" clip-rule="nonzero">
<path style="fill:none;stroke-width:16;stroke-linecap:round;stroke-linejoin:round;stroke:rgb(78.431374%,27.843139%,32.941177%);stroke-opacity:1;stroke-miterlimit:4;" d="M 138.869792 268.971354 C 139.758464 275.251302 142.128255 281.235026 145.801432 286.389323 C 149.474609 291.602865 154.273438 295.809245 159.901693 298.771484 C 165.529948 301.674479 171.750651 303.274089 178.089844 303.333333 C 184.429036 303.392578 190.708984 301.911458 196.33724 299.067708 C 202.02474 296.283203 206.942057 292.136068 210.674479 287.041016 C 214.466146 281.886719 216.954427 275.96224 217.961589 269.741536 C 218.96875 263.461589 218.494792 257.063151 216.539714 251.020182 C 214.584635 244.977214 211.207682 239.526693 206.764323 235.024089 L 268.971354 172.817057 " transform="matrix(0.0659341,0,0,0.0659341,0,0)"/>
</g>
</g>
<g clip-path="url(#clip11)" clip-rule="nonzero">
<g clip-path="url(#clip12)" clip-rule="nonzero">
<path style="fill:none;stroke-width:16;stroke-linecap:round;stroke-linejoin:round;stroke:rgb(19.607843%,24.705882%,21.568628%);stroke-opacity:1;stroke-miterlimit:4;" d="M 87.978516 138.869792 C 81.698568 139.758464 75.714844 142.128255 70.560547 145.801432 C 65.347005 149.474609 61.140625 154.273438 58.178385 159.901693 C 55.216146 165.529948 53.675781 171.750651 53.616536 178.089844 C 53.557292 184.429036 54.979167 190.708984 57.822917 196.33724 C 60.666667 202.02474 64.813802 206.942057 69.908854 210.674479 C 75.003906 214.466146 80.928385 216.954427 87.208333 217.961589 C 93.488281 218.96875 99.886719 218.494792 105.870443 216.539714 C 111.913411 214.584635 117.423177 211.207682 121.866536 206.764323 L 184.132812 268.971354 " transform="matrix(0.0659341,0,0,0.0659341,0,0)"/>
</g>
</g>
<g clip-path="url(#clip13)" clip-rule="nonzero">
<g clip-path="url(#clip14)" clip-rule="nonzero">
<path style="fill:none;stroke-width:16;stroke-linecap:round;stroke-linejoin:round;stroke:rgb(19.607843%,24.705882%,21.568628%);stroke-opacity:1;stroke-miterlimit:4;" d="M 216.421224 85.904948 C 215.473307 79.625 213.103516 73.641276 209.489583 68.486979 C 205.816406 63.332682 200.958333 59.067057 195.330078 56.164062 C 189.761068 53.201823 183.540365 51.602214 177.201172 51.542969 C 170.861979 51.483724 164.582031 52.964844 158.894531 55.808594 C 153.207031 58.652344 148.348958 62.740234 144.557292 67.894531 C 140.82487 72.989583 138.336589 78.914062 137.329427 85.134766 C 136.322266 91.414714 136.796224 97.813151 138.751302 103.85612 C 140.647135 109.899089 144.024089 115.349609 148.526693 119.852214 L 86.260417 182.059245 " transform="matrix(0.0659341,0,0,0.0659341,0,0)"/>
<path style="fill:none;stroke-width:16;stroke-linecap:round;stroke-linejoin:round;stroke:rgb(19.607843%,24.705882%,21.568628%);stroke-opacity:1;stroke-miterlimit:4;" d="M 216.421224 85.904948 C 215.473307 79.625 213.103516 73.641276 209.489583 68.486979 C 205.816406 63.332682 200.958333 59.067057 195.330078 56.164062 C 189.761068 53.201823 183.540365 51.602214 177.201172 51.542969 C 170.861979 51.483724 164.582031 52.964844 158.894531 55.808594 C 153.207031 58.652344 148.348958 62.740234 144.557292 67.894531 C 140.82487 72.989583 138.336589 78.914062 137.329427 85.134766 C 136.322266 91.414714 136.796224 97.813151 138.751302 103.85612 C 140.647135 109.899089 144.024089 115.349609 148.526693 119.852214 L 86.260417 182.059245 " transform="matrix(0.0659341,0,0,0.0659341,0,0)"/>
</g>
</g>
<g clip-path="url(#clip15)" clip-rule="nonzero">
<g clip-path="url(#clip16)" clip-rule="nonzero">
<path style="fill:none;stroke-width:16;stroke-linecap:round;stroke-linejoin:round;stroke:rgb(78.431374%,27.843139%,32.941177%);stroke-opacity:1;stroke-miterlimit:4;" d="M 267.134766 216.421224 C 273.414714 215.473307 279.398438 213.103516 284.552734 209.489583 C 289.707031 205.816406 293.972656 200.958333 296.934896 195.330078 C 299.837891 189.761068 301.4375 183.540365 301.496745 177.201172 C 301.55599 170.861979 300.07487 164.582031 297.23112 158.894531 C 294.446615 153.266276 290.299479 148.348958 285.204427 144.557292 C 280.05013 140.82487 274.125651 138.336589 267.904948 137.329427 C 261.625 136.322266 255.226562 136.796224 249.183594 138.751302 C 243.140625 140.647135 237.690104 144.024089 233.1875 148.526693 L 170.980469 86.260417 " transform="matrix(0.0659341,0,0,0.0659341,0,0)"/>
</g>
</g>
<g clip-path="url(#clip17)" clip-rule="nonzero">
<g clip-path="url(#clip18)" clip-rule="nonzero">
<path style=" stroke:none;fill-rule:nonzero;fill:rgb(19.607843%,24.705882%,21.568628%);fill-opacity:1;" d="M 6.824219 12.417969 C 7.238281 12.007812 7.238281 11.339844 6.824219 10.925781 C 6.414062 10.515625 5.746094 10.515625 5.332031 10.925781 C 4.921875 11.339844 4.921875 12.007812 5.332031 12.417969 C 5.746094 12.832031 6.414062 12.832031 6.824219 12.417969 Z M 6.824219 12.417969 "/>
</g>
</g>
<g clip-path="url(#clip19)" clip-rule="nonzero">
<g clip-path="url(#clip20)" clip-rule="nonzero">
<path style=" stroke:none;fill-rule:nonzero;fill:rgb(19.607843%,24.705882%,21.568628%);fill-opacity:1;" d="M 12.511719 18.109375 C 12.925781 17.695312 12.925781 17.027344 12.511719 16.617188 C 12.101562 16.203125 11.433594 16.203125 11.019531 16.617188 C 10.609375 17.027344 10.609375 17.695312 11.019531 18.109375 C 11.433594 18.519531 12.101562 18.519531 12.511719 18.109375 Z M 12.511719 18.109375 "/>
</g>
</g>
<g clip-path="url(#clip21)" clip-rule="nonzero">
<g clip-path="url(#clip22)" clip-rule="nonzero">
<path style=" stroke:none;fill-rule:nonzero;fill:rgb(78.431374%,27.843139%,32.941177%);fill-opacity:1;" d="M 12.390625 6.789062 C 12.804688 6.375 12.804688 5.707031 12.390625 5.296875 C 11.980469 4.882812 11.3125 4.882812 10.898438 5.296875 C 10.488281 5.707031 10.488281 6.375 10.898438 6.789062 C 11.3125 7.199219 11.980469 7.199219 12.390625 6.789062 Z M 12.390625 6.789062 "/>
</g>
</g>
<g clip-path="url(#clip23)" clip-rule="nonzero">
<g clip-path="url(#clip24)" clip-rule="nonzero">
<path style=" stroke:none;fill-rule:nonzero;fill:rgb(78.431374%,27.843139%,32.941177%);fill-opacity:1;" d="M 18.109375 12.511719 C 18.519531 12.101562 18.519531 11.433594 18.109375 11.019531 C 17.695312 10.609375 17.027344 10.609375 16.617188 11.019531 C 16.203125 11.433594 16.203125 12.101562 16.617188 12.511719 C 17.027344 12.925781 17.695312 12.925781 18.109375 12.511719 Z M 18.109375 12.511719 "/>
</g>
</g>
<g clip-path="url(#clip25)" clip-rule="nonzero">
<g clip-path="url(#clip26)" clip-rule="nonzero">
<path style="fill:none;stroke-width:16;stroke-linecap:round;stroke-linejoin:round;stroke:rgb(78.431374%,27.843139%,32.941177%);stroke-opacity:1;stroke-miterlimit:4;" d="M 138.869792 268.971354 C 139.758464 275.251302 142.128255 281.235026 145.801432 286.389323 C 149.474609 291.602865 154.273438 295.809245 159.901693 298.771484 C 165.529948 301.674479 171.750651 303.274089 178.089844 303.333333 C 184.429036 303.392578 190.708984 301.911458 196.33724 299.067708 C 202.02474 296.283203 206.942057 292.136068 210.674479 287.041016 C 214.466146 281.886719 216.954427 275.96224 217.961589 269.741536 C 218.96875 263.461589 218.494792 257.063151 216.539714 251.020182 C 214.584635 244.977214 211.207682 239.526693 206.764323 235.024089 L 268.971354 172.817057 " transform="matrix(0.0659341,0,0,0.0659341,0,0)"/>
</g>
</g>
<g clip-path="url(#clip27)" clip-rule="nonzero">
<g clip-path="url(#clip28)" clip-rule="nonzero">
<path style="fill:none;stroke-width:16;stroke-linecap:round;stroke-linejoin:round;stroke:rgb(19.607843%,24.705882%,21.568628%);stroke-opacity:1;stroke-miterlimit:4;" d="M 87.978516 138.869792 C 81.698568 139.758464 75.714844 142.128255 70.560547 145.801432 C 65.347005 149.474609 61.140625 154.273438 58.178385 159.901693 C 55.216146 165.529948 53.675781 171.750651 53.616536 178.089844 C 53.557292 184.429036 54.979167 190.708984 57.822917 196.33724 C 60.666667 202.02474 64.813802 206.942057 69.908854 210.674479 C 75.003906 214.466146 80.928385 216.954427 87.208333 217.961589 C 93.488281 218.96875 99.886719 218.494792 105.870443 216.539714 C 111.913411 214.584635 117.423177 211.207682 121.866536 206.764323 L 184.132812 268.971354 " transform="matrix(0.0659341,0,0,0.0659341,0,0)"/>
</g>
</g>
<g clip-path="url(#clip29)" clip-rule="nonzero">
<g clip-path="url(#clip30)" clip-rule="nonzero">
<path style="fill:none;stroke-width:16;stroke-linecap:round;stroke-linejoin:round;stroke:rgb(19.607843%,24.705882%,21.568628%);stroke-opacity:1;stroke-miterlimit:4;" d="M 216.421224 85.904948 C 215.473307 79.625 213.103516 73.641276 209.489583 68.486979 C 205.816406 63.332682 200.958333 59.067057 195.330078 56.164062 C 189.761068 53.201823 183.540365 51.602214 177.201172 51.542969 C 170.861979 51.483724 164.582031 52.964844 158.894531 55.808594 C 153.207031 58.652344 148.348958 62.740234 144.557292 67.894531 C 140.82487 72.989583 138.336589 78.914062 137.329427 85.134766 C 136.322266 91.414714 136.796224 97.813151 138.751302 103.85612 C 140.647135 109.899089 144.024089 115.349609 148.526693 119.852214 L 86.260417 182.059245 " transform="matrix(0.0659341,0,0,0.0659341,0,0)"/>
<path style="fill:none;stroke-width:16;stroke-linecap:round;stroke-linejoin:round;stroke:rgb(19.607843%,24.705882%,21.568628%);stroke-opacity:1;stroke-miterlimit:4;" d="M 216.421224 85.904948 C 215.473307 79.625 213.103516 73.641276 209.489583 68.486979 C 205.816406 63.332682 200.958333 59.067057 195.330078 56.164062 C 189.761068 53.201823 183.540365 51.602214 177.201172 51.542969 C 170.861979 51.483724 164.582031 52.964844 158.894531 55.808594 C 153.207031 58.652344 148.348958 62.740234 144.557292 67.894531 C 140.82487 72.989583 138.336589 78.914062 137.329427 85.134766 C 136.322266 91.414714 136.796224 97.813151 138.751302 103.85612 C 140.647135 109.899089 144.024089 115.349609 148.526693 119.852214 L 86.260417 182.059245 " transform="matrix(0.0659341,0,0,0.0659341,0,0)"/>
</g>
</g>
<g clip-path="url(#clip31)" clip-rule="nonzero">
<g clip-path="url(#clip32)" clip-rule="nonzero">
<path style="fill:none;stroke-width:16;stroke-linecap:round;stroke-linejoin:round;stroke:rgb(78.431374%,27.843139%,32.941177%);stroke-opacity:1;stroke-miterlimit:4;" d="M 267.134766 216.421224 C 273.414714 215.473307 279.398438 213.103516 284.552734 209.489583 C 289.707031 205.816406 293.972656 200.958333 296.934896 195.330078 C 299.837891 189.761068 301.4375 183.540365 301.496745 177.201172 C 301.55599 170.861979 300.07487 164.582031 297.23112 158.894531 C 294.446615 153.266276 290.299479 148.348958 285.204427 144.557292 C 280.05013 140.82487 274.125651 138.336589 267.904948 137.329427 C 261.625 136.322266 255.226562 136.796224 249.183594 138.751302 C 243.140625 140.647135 237.690104 144.024089 233.1875 148.526693 L 170.980469 86.260417 " transform="matrix(0.0659341,0,0,0.0659341,0,0)"/>
</g>
</g>
</g>
</svg>